<svg xmlns="http://www.w3.org/2000/svg" xmlns:xlink="http://www.w3.org/1999/xlink" width="260" zoomAndPan="magnify" viewBox="0 0 194.87999 44.999999" height="60" preserveAspectRatio="xMidYMid meet" version="1.0"><defs><g/></defs><g fill="#ffffff" fill-opacity="1"><g transform="translate(1.229711, 36.175811)"><g><path d="M 7.265625 -30.84375 L 11.421875 -30.84375 L 18.015625 0 L 13.9375 0 L 12.53125 -7.765625 L 6.25 -7.765625 L 4.765625 0 L 0.71875 0 Z M 11.953125 -10.859375 L 9.375 -24.75 L 6.8125 -10.859375 Z M 11.953125 -10.859375 "/></g></g></g><g fill="#ffffff" fill-opacity="1"><g transform="translate(19.962258, 36.175811)"><g><path d="M 5.21875 0.296875 C 4.019531 0.296875 3.164062 -0.128906 2.65625 -0.984375 C 2.15625 -1.847656 1.90625 -2.914062 1.90625 -4.1875 L 1.90625 -22.015625 L 5.984375 -22.015625 L 5.984375 -5.40625 C 5.984375 -4.570312 6.109375 -3.941406 6.359375 -3.515625 C 6.609375 -3.097656 7.066406 -2.890625 7.734375 -2.890625 C 8.546875 -2.890625 9.492188 -3.347656 10.578125 -4.265625 L 10.578125 -22.015625 L 14.65625 -22.015625 L 14.65625 0 L 10.578125 0 L 10.578125 -2.171875 C 8.828125 -0.523438 7.039062 0.296875 5.21875 0.296875 Z M 5.21875 0.296875 "/></g></g></g><g fill="#ffffff" fill-opacity="1"><g transform="translate(36.714949, 36.175811)"><g><path d="M 8.078125 0.296875 C 6.347656 0.296875 5.015625 -0.0507812 4.078125 -0.75 C 3.140625 -1.445312 2.5 -2.421875 2.15625 -3.671875 C 1.8125 -4.929688 1.640625 -6.523438 1.640625 -8.453125 L 1.640625 -13.515625 C 1.640625 -15.492188 1.8125 -17.117188 2.15625 -18.390625 C 2.5 -19.660156 3.140625 -20.628906 4.078125 -21.296875 C 5.015625 -21.972656 6.347656 -22.3125 8.078125 -22.3125 C 9.648438 -22.3125 10.875 -22.054688 11.75 -21.546875 C 12.625 -21.046875 13.234375 -20.289062 13.578125 -19.28125 C 13.921875 -18.28125 14.09375 -16.984375 14.09375 -15.390625 L 14.09375 -14.09375 L 10.390625 -14.09375 L 10.390625 -15.421875 C 10.390625 -16.867188 10.226562 -17.878906 9.90625 -18.453125 C 9.59375 -19.023438 8.992188 -19.3125 8.109375 -19.3125 C 7.421875 -19.3125 6.910156 -19.15625 6.578125 -18.84375 C 6.253906 -18.539062 6.03125 -18.046875 5.90625 -17.359375 C 5.78125 -16.671875 5.71875 -15.671875 5.71875 -14.359375 L 5.71875 -7.421875 C 5.71875 -6.148438 5.789062 -5.175781 5.9375 -4.5 C 6.09375 -3.832031 6.34375 -3.363281 6.6875 -3.09375 C 7.03125 -2.832031 7.519531 -2.703125 8.15625 -2.703125 C 9.09375 -2.703125 9.695312 -3.007812 9.96875 -3.625 C 10.25 -4.25 10.390625 -5.210938 10.390625 -6.515625 L 10.390625 -8.296875 L 14.09375 -8.296875 L 14.09375 -6.78125 C 14.09375 -4.394531 13.65625 -2.617188 12.78125 -1.453125 C 11.90625 -0.285156 10.335938 0.296875 8.078125 0.296875 Z M 8.078125 0.296875 "/></g></g></g><g fill="#ffffff" fill-opacity="1"><g transform="translate(52.363484, 36.175811)"><g><path d="M 7.921875 0.296875 C 4.742188 0.296875 3.15625 -1.453125 3.15625 -4.953125 L 3.15625 -19.3125 L 0.84375 -19.3125 L 0.84375 -22.015625 L 3.15625 -22.015625 L 3.15625 -28.4375 L 7.234375 -28.4375 L 7.234375 -22.015625 L 10.78125 -22.015625 L 10.78125 -19.3125 L 7.234375 -19.3125 L 7.234375 -5.21875 C 7.234375 -4.332031 7.375 -3.707031 7.65625 -3.34375 C 7.9375 -2.988281 8.46875 -2.8125 9.25 -2.8125 C 9.757812 -2.8125 10.253906 -2.851562 10.734375 -2.9375 L 10.734375 0.078125 C 9.722656 0.222656 8.785156 0.296875 7.921875 0.296875 Z M 7.921875 0.296875 "/></g></g></g><g fill="#ffffff" fill-opacity="1"><g transform="translate(64.090369, 36.175811)"><g><path d="M 2.328125 -29.546875 L 6.390625 -29.546875 L 6.390625 -25.28125 L 2.328125 -25.28125 Z M 2.328125 -22.015625 L 6.390625 -22.015625 L 6.390625 0 L 2.328125 0 Z M 2.328125 -22.015625 "/></g></g></g><g fill="#ffffff" fill-opacity="1"><g transform="translate(72.80938, 36.175811)"><g><path d="M 8.109375 0.296875 C 5.773438 0.296875 4.117188 -0.390625 3.140625 -1.765625 C 2.160156 -3.148438 1.671875 -5.164062 1.671875 -7.8125 L 1.671875 -14.203125 C 1.671875 -16.835938 2.160156 -18.847656 3.140625 -20.234375 C 4.117188 -21.617188 5.773438 -22.3125 8.109375 -22.3125 C 10.421875 -22.3125 12.0625 -21.617188 13.03125 -20.234375 C 14.007812 -18.847656 14.5 -16.835938 14.5 -14.203125 L 14.5 -7.8125 C 14.5 -5.164062 14.007812 -3.148438 13.03125 -1.765625 C 12.0625 -0.390625 10.421875 0.296875 8.109375 0.296875 Z M 8.109375 -2.703125 C 8.847656 -2.703125 9.378906 -2.914062 9.703125 -3.34375 C 10.035156 -3.78125 10.238281 -4.316406 10.3125 -4.953125 C 10.394531 -5.585938 10.4375 -6.453125 10.4375 -7.546875 L 10.4375 -14.4375 C 10.4375 -15.519531 10.394531 -16.382812 10.3125 -17.03125 C 10.238281 -17.6875 10.035156 -18.226562 9.703125 -18.65625 C 9.378906 -19.09375 8.847656 -19.3125 8.109375 -19.3125 C 7.367188 -19.3125 6.828125 -19.09375 6.484375 -18.65625 C 6.148438 -18.226562 5.941406 -17.6875 5.859375 -17.03125 C 5.785156 -16.382812 5.75 -15.519531 5.75 -14.4375 L 5.75 -7.546875 C 5.75 -6.453125 5.785156 -5.585938 5.859375 -4.953125 C 5.941406 -4.316406 6.148438 -3.78125 6.484375 -3.34375 C 6.828125 -2.914062 7.367188 -2.703125 8.109375 -2.703125 Z M 8.109375 -2.703125 "/></g></g></g><g fill="#ffffff" fill-opacity="1"><g transform="translate(88.990951, 36.175811)"><g><path d="M 2.0625 -22.015625 L 6.125 -22.015625 L 6.125 -19.84375 C 7.882812 -21.488281 9.675781 -22.3125 11.5 -22.3125 C 12.695312 -22.3125 13.546875 -21.878906 14.046875 -21.015625 C 14.554688 -20.148438 14.8125 -19.085938 14.8125 -17.828125 L 14.8125 0 L 10.734375 0 L 10.734375 -16.640625 C 10.734375 -17.472656 10.601562 -18.09375 10.34375 -18.5 C 10.09375 -18.90625 9.640625 -19.109375 8.984375 -19.109375 C 8.171875 -19.109375 7.21875 -18.65625 6.125 -17.75 L 6.125 0 L 2.0625 0 Z M 2.0625 -22.015625 "/></g></g></g><g fill="#ffffff" fill-opacity="1"><g transform="translate(105.705568, 36.175811)"><g><path d="M 7.15625 0.296875 C 5.382812 0.296875 3.945312 -0.257812 2.84375 -1.375 C 1.738281 -2.488281 1.109375 -3.984375 0.953125 -5.859375 L 4.34375 -6.890625 C 4.539062 -5.472656 4.882812 -4.421875 5.375 -3.734375 C 5.875 -3.046875 6.582031 -2.703125 7.5 -2.703125 C 8.207031 -2.703125 8.757812 -2.910156 9.15625 -3.328125 C 9.550781 -3.742188 9.75 -4.3125 9.75 -5.03125 C 9.75 -5.664062 9.609375 -6.234375 9.328125 -6.734375 C 9.046875 -7.242188 8.585938 -7.765625 7.953125 -8.296875 L 4.1875 -11.53125 C 3.320312 -12.269531 2.65625 -13.050781 2.1875 -13.875 C 1.71875 -14.695312 1.484375 -15.707031 1.484375 -16.90625 C 1.484375 -18.601562 1.988281 -19.925781 3 -20.875 C 4.019531 -21.832031 5.40625 -22.3125 7.15625 -22.3125 C 8.832031 -22.3125 10.144531 -21.769531 11.09375 -20.6875 C 12.050781 -19.613281 12.601562 -18.226562 12.75 -16.53125 L 10.015625 -15.5 C 9.835938 -16.738281 9.546875 -17.679688 9.140625 -18.328125 C 8.734375 -18.984375 8.125 -19.3125 7.3125 -19.3125 C 6.65625 -19.3125 6.128906 -19.09375 5.734375 -18.65625 C 5.335938 -18.226562 5.140625 -17.695312 5.140625 -17.0625 C 5.140625 -16.25 5.507812 -15.507812 6.25 -14.84375 L 10.125 -11.265625 C 11.113281 -10.359375 11.878906 -9.457031 12.421875 -8.5625 C 12.972656 -7.675781 13.25 -6.597656 13.25 -5.328125 C 13.25 -3.503906 12.703125 -2.109375 11.609375 -1.140625 C 10.515625 -0.179688 9.03125 0.296875 7.15625 0.296875 Z M 7.15625 0.296875 "/></g></g></g><g fill="#ffffff" fill-opacity="1"><g transform="translate(119.945356, 36.175811)"><g><path d="M 5.78125 -27.640625 L 0.578125 -27.640625 L 0.578125 -30.84375 L 15.15625 -30.84375 L 15.15625 -27.640625 L 10.09375 -27.640625 L 10.09375 0 L 5.78125 0 Z M 5.78125 -27.640625 "/></g></g></g><g fill="#ffffff" fill-opacity="1"><g transform="translate(135.670039, 36.175811)"><g><path d="M 6.015625 0.296875 C 5.179688 0.296875 4.425781 0.0546875 3.75 -0.421875 C 3.070312 -0.898438 2.539062 -1.53125 2.15625 -2.3125 C 1.78125 -3.101562 1.59375 -3.929688 1.59375 -4.796875 C 1.59375 -6.523438 1.960938 -7.925781 2.703125 -9 C 3.441406 -10.082031 4.378906 -10.941406 5.515625 -11.578125 C 6.660156 -12.210938 8.25 -12.9375 10.28125 -13.75 L 10.28125 -15.3125 C 10.28125 -16.757812 10.132812 -17.78125 9.84375 -18.375 C 9.550781 -18.96875 8.960938 -19.265625 8.078125 -19.265625 C 6.523438 -19.265625 5.75 -18.222656 5.75 -16.140625 L 5.75 -15.046875 L 1.71875 -15.1875 C 1.769531 -17.625 2.328125 -19.421875 3.390625 -20.578125 C 4.453125 -21.734375 6.101562 -22.3125 8.34375 -22.3125 C 10.445312 -22.3125 11.972656 -21.734375 12.921875 -20.578125 C 13.878906 -19.421875 14.359375 -17.675781 14.359375 -15.34375 L 14.359375 -5.296875 C 14.359375 -3.640625 14.484375 -1.875 14.734375 0 L 11 0 C 10.71875 -1.445312 10.539062 -2.523438 10.46875 -3.234375 C 10.164062 -2.242188 9.640625 -1.40625 8.890625 -0.71875 C 8.140625 -0.0390625 7.179688 0.296875 6.015625 0.296875 Z M 7.609375 -3.203125 C 8.148438 -3.203125 8.671875 -3.410156 9.171875 -3.828125 C 9.679688 -4.242188 10.050781 -4.644531 10.28125 -5.03125 L 10.28125 -11.265625 C 9.1875 -10.660156 8.34375 -10.132812 7.75 -9.6875 C 7.15625 -9.25 6.660156 -8.734375 6.265625 -8.140625 C 5.867188 -7.554688 5.671875 -6.859375 5.671875 -6.046875 C 5.671875 -5.140625 5.832031 -4.4375 6.15625 -3.9375 C 6.488281 -3.445312 6.972656 -3.203125 7.609375 -3.203125 Z M 7.609375 -3.203125 "/></g></g></g><g fill="#ffffff" fill-opacity="1"><g transform="translate(151.889683, 36.175811)"><g><path d="M 9.9375 0.296875 C 8.613281 0.296875 7.367188 -0.332031 6.203125 -1.59375 L 6.203125 0 L 2.125 0 L 2.125 -30.84375 L 6.203125 -30.84375 L 6.203125 -20.25 C 7.398438 -21.625 8.785156 -22.3125 10.359375 -22.3125 C 12.359375 -22.3125 13.695312 -21.453125 14.375 -19.734375 C 15.050781 -18.023438 15.390625 -16.128906 15.390625 -14.046875 L 15.390625 -8.71875 C 15.390625 -2.707031 13.570312 0.296875 9.9375 0.296875 Z M 9.09375 -2.890625 C 10.039062 -2.890625 10.644531 -3.363281 10.90625 -4.3125 C 11.175781 -5.269531 11.3125 -6.738281 11.3125 -8.71875 L 11.3125 -14.046875 C 11.3125 -15.671875 11.15625 -16.921875 10.84375 -17.796875 C 10.539062 -18.671875 9.910156 -19.109375 8.953125 -19.109375 C 8.054688 -19.109375 7.140625 -18.742188 6.203125 -18.015625 L 6.203125 -3.890625 C 7.046875 -3.222656 8.007812 -2.890625 9.09375 -2.890625 Z M 9.09375 -2.890625 "/></g></g></g><g fill="#ffffff" fill-opacity="1"><g transform="translate(168.908892, 36.175811)"><g><path d="M 2.4375 -30.84375 L 6.515625 -30.84375 L 6.515625 0 L 2.4375 0 Z M 2.4375 -30.84375 "/></g></g></g><g fill="#ffffff" fill-opacity="1"><g transform="translate(177.627902, 36.175811)"><g><path d="M 8.15625 0.296875 C 6.445312 0.296875 5.125 -0.0234375 4.1875 -0.671875 C 3.25 -1.316406 2.585938 -2.269531 2.203125 -3.53125 C 1.828125 -4.800781 1.640625 -6.453125 1.640625 -8.484375 L 1.640625 -13.515625 C 1.640625 -16.566406 2.113281 -18.796875 3.0625 -20.203125 C 4.019531 -21.609375 5.71875 -22.3125 8.15625 -22.3125 C 9.925781 -22.3125 11.257812 -21.941406 12.15625 -21.203125 C 13.0625 -20.472656 13.660156 -19.441406 13.953125 -18.109375 C 14.242188 -16.773438 14.390625 -14.976562 14.390625 -12.71875 L 14.390625 -10.921875 L 5.71875 -10.921875 L 5.71875 -6.515625 C 5.71875 -5.171875 5.910156 -4.195312 6.296875 -3.59375 C 6.691406 -3 7.320312 -2.703125 8.1875 -2.703125 C 9.050781 -2.703125 9.632812 -3 9.9375 -3.59375 C 10.238281 -4.195312 10.390625 -5.109375 10.390625 -6.328125 L 10.390625 -7.65625 L 14.359375 -7.65625 L 14.359375 -6.8125 C 14.359375 -4.5 13.863281 -2.734375 12.875 -1.515625 C 11.882812 -0.304688 10.3125 0.296875 8.15625 0.296875 Z M 10.390625 -13.140625 L 10.390625 -15.109375 C 10.390625 -16.609375 10.242188 -17.679688 9.953125 -18.328125 C 9.660156 -18.984375 9.046875 -19.3125 8.109375 -19.3125 C 7.453125 -19.3125 6.953125 -19.15625 6.609375 -18.84375 C 6.265625 -18.539062 6.03125 -18.039062 5.90625 -17.34375 C 5.78125 -16.644531 5.71875 -15.632812 5.71875 -14.3125 L 5.71875 -13.140625 Z M 10.390625 -13.140625 "/></g></g></g></svg>