<svg xmlns="http://www.w3.org/2000/svg" xmlns:xlink="http://www.w3.org/1999/xlink" width="800" zoomAndPan="magnify" viewBox="0 0 600 74.999997" height="100" preserveAspectRatio="xMidYMid meet" version="1.0"><defs><g/></defs><rect x="-60" width="720" fill="#ffffff" y="-7.5" height="89.999996" fill-opacity="1"/><rect x="-60" width="720" fill="#ffffff" y="-7.5" height="89.999996" fill-opacity="1"/><rect x="-60" width="720" fill="#ffffff" y="-7.5" height="89.999996" fill-opacity="1"/><path stroke-linecap="butt" transform="matrix(0.75, 0, 0, 0.75, 0.000012, 37.499996)" fill="none" stroke-linejoin="miter" d="M -0.000016 2.000006 L 310.000009 2.000006 " stroke="#000000" stroke-width="4" stroke-opacity="1" stroke-miterlimit="4"/><path stroke-linecap="round" transform="matrix(3, 0, 0, 3, 233.999993, 38.999996)" fill="none" stroke-linejoin="round" d="M -2.499998 -1.499999 L -0.499998 0.000001395 L -2.499998 1.500002 " stroke="#000000" stroke-width="1" stroke-opacity="1" stroke-miterlimit="4"/><path stroke-linecap="butt" transform="matrix(-0.75, -0.000000000000000092, 0.000000000000000092, -0.75, 599.999963, 40.499996)" fill="none" stroke-linejoin="miter" d="M -0.0000493333 1.999994 L 309.999976 1.999994 " stroke="#000000" stroke-width="4" stroke-opacity="1" stroke-miterlimit="4"/><path stroke-linecap="round" transform="matrix(-3, -0.000000000000000367, 0.000000000000000367, -3, 365.999982, 38.999996)" fill="none" stroke-linejoin="round" d="M -2.500006 -1.500002 L -0.500006 -0.000001395 L -2.500006 1.499999 " stroke="#000000" stroke-width="1" stroke-opacity="1" stroke-miterlimit="4"/><g fill="#000000" fill-opacity="1"><g transform="translate(241.441399, 46.874997)"><g><path d="M 4.21875 -17.890625 L 6.625 -17.890625 L 10.453125 0 L 8.09375 0 L 7.265625 -4.5 L 3.625 -4.5 L 2.765625 0 L 0.421875 0 Z M 6.9375 -6.296875 L 5.4375 -14.359375 L 3.953125 -6.296875 Z M 6.9375 -6.296875 "/></g></g></g><g fill="#000000" fill-opacity="1"><g transform="translate(252.303855, 46.874997)"><g><path d="M 3.03125 0.171875 C 2.332031 0.171875 1.835938 -0.078125 1.546875 -0.578125 C 1.253906 -1.078125 1.109375 -1.695312 1.109375 -2.4375 L 1.109375 -12.765625 L 3.46875 -12.765625 L 3.46875 -3.140625 C 3.46875 -2.648438 3.539062 -2.28125 3.6875 -2.03125 C 3.832031 -1.789062 4.097656 -1.671875 4.484375 -1.671875 C 4.953125 -1.671875 5.503906 -1.9375 6.140625 -2.46875 L 6.140625 -12.765625 L 8.5 -12.765625 L 8.5 0 L 6.140625 0 L 6.140625 -1.265625 C 5.128906 -0.304688 4.09375 0.171875 3.03125 0.171875 Z M 3.03125 0.171875 "/></g></g></g><g fill="#000000" fill-opacity="1"><g transform="translate(262.01824, 46.874997)"><g><path d="M 4.6875 0.171875 C 3.6875 0.171875 2.910156 -0.0234375 2.359375 -0.421875 C 1.816406 -0.828125 1.445312 -1.394531 1.25 -2.125 C 1.050781 -2.851562 0.953125 -3.78125 0.953125 -4.90625 L 0.953125 -7.84375 C 0.953125 -8.988281 1.050781 -9.929688 1.25 -10.671875 C 1.445312 -11.410156 1.816406 -11.972656 2.359375 -12.359375 C 2.910156 -12.753906 3.6875 -12.953125 4.6875 -12.953125 C 5.59375 -12.953125 6.300781 -12.800781 6.8125 -12.5 C 7.320312 -12.207031 7.675781 -11.769531 7.875 -11.1875 C 8.070312 -10.601562 8.171875 -9.847656 8.171875 -8.921875 L 8.171875 -8.171875 L 6.03125 -8.171875 L 6.03125 -8.953125 C 6.03125 -9.785156 5.9375 -10.367188 5.75 -10.703125 C 5.570312 -11.035156 5.222656 -11.203125 4.703125 -11.203125 C 4.304688 -11.203125 4.007812 -11.113281 3.8125 -10.9375 C 3.625 -10.757812 3.492188 -10.472656 3.421875 -10.078125 C 3.347656 -9.679688 3.3125 -9.097656 3.3125 -8.328125 L 3.3125 -4.3125 C 3.3125 -3.570312 3.351562 -3.003906 3.4375 -2.609375 C 3.53125 -2.222656 3.675781 -1.953125 3.875 -1.796875 C 4.070312 -1.640625 4.359375 -1.5625 4.734375 -1.5625 C 5.273438 -1.5625 5.625 -1.742188 5.78125 -2.109375 C 5.945312 -2.472656 6.03125 -3.03125 6.03125 -3.78125 L 6.03125 -4.8125 L 8.171875 -4.8125 L 8.171875 -3.9375 C 8.171875 -2.550781 7.914062 -1.519531 7.40625 -0.84375 C 6.90625 -0.164062 6 0.171875 4.6875 0.171875 Z M 4.6875 0.171875 "/></g></g></g><g fill="#000000" fill-opacity="1"><g transform="translate(271.092363, 46.874997)"><g><path d="M 4.59375 0.171875 C 2.75 0.171875 1.828125 -0.84375 1.828125 -2.875 L 1.828125 -11.203125 L 0.484375 -11.203125 L 0.484375 -12.765625 L 1.828125 -12.765625 L 1.828125 -16.5 L 4.203125 -16.5 L 4.203125 -12.765625 L 6.25 -12.765625 L 6.25 -11.203125 L 4.203125 -11.203125 L 4.203125 -3.03125 C 4.203125 -2.507812 4.28125 -2.144531 4.4375 -1.9375 C 4.601562 -1.738281 4.914062 -1.640625 5.375 -1.640625 C 5.664062 -1.640625 5.953125 -1.660156 6.234375 -1.703125 L 6.234375 0.046875 C 5.640625 0.128906 5.09375 0.171875 4.59375 0.171875 Z M 4.59375 0.171875 "/></g></g></g><g fill="#000000" fill-opacity="1"><g transform="translate(277.89243, 46.874997)"><g><path d="M 1.34375 -17.140625 L 3.71875 -17.140625 L 3.71875 -14.671875 L 1.34375 -14.671875 Z M 1.34375 -12.765625 L 3.71875 -12.765625 L 3.71875 0 L 1.34375 0 Z M 1.34375 -12.765625 "/></g></g></g><g fill="#000000" fill-opacity="1"><g transform="translate(282.948326, 46.874997)"><g><path d="M 4.703125 0.171875 C 3.347656 0.171875 2.382812 -0.226562 1.8125 -1.03125 C 1.25 -1.832031 0.96875 -3 0.96875 -4.53125 L 0.96875 -8.234375 C 0.96875 -9.765625 1.25 -10.929688 1.8125 -11.734375 C 2.382812 -12.546875 3.347656 -12.953125 4.703125 -12.953125 C 6.046875 -12.953125 7 -12.546875 7.5625 -11.734375 C 8.132812 -10.929688 8.421875 -9.765625 8.421875 -8.234375 L 8.421875 -4.53125 C 8.421875 -3 8.132812 -1.832031 7.5625 -1.03125 C 7 -0.226562 6.046875 0.171875 4.703125 0.171875 Z M 4.703125 -1.5625 C 5.128906 -1.5625 5.4375 -1.6875 5.625 -1.9375 C 5.820312 -2.1875 5.941406 -2.492188 5.984375 -2.859375 C 6.023438 -3.234375 6.046875 -3.738281 6.046875 -4.375 L 6.046875 -8.375 C 6.046875 -9.007812 6.023438 -9.515625 5.984375 -9.890625 C 5.941406 -10.265625 5.820312 -10.578125 5.625 -10.828125 C 5.4375 -11.078125 5.128906 -11.203125 4.703125 -11.203125 C 4.273438 -11.203125 3.960938 -11.078125 3.765625 -10.828125 C 3.566406 -10.578125 3.445312 -10.265625 3.40625 -9.890625 C 3.363281 -9.515625 3.34375 -9.007812 3.34375 -8.375 L 3.34375 -4.375 C 3.34375 -3.738281 3.363281 -3.234375 3.40625 -2.859375 C 3.445312 -2.492188 3.566406 -2.1875 3.765625 -1.9375 C 3.960938 -1.6875 4.273438 -1.5625 4.703125 -1.5625 Z M 4.703125 -1.5625 "/></g></g></g><g fill="#000000" fill-opacity="1"><g transform="translate(292.331543, 46.874997)"><g><path d="M 1.1875 -12.765625 L 3.5625 -12.765625 L 3.5625 -11.515625 C 4.570312 -12.472656 5.609375 -12.953125 6.671875 -12.953125 C 7.359375 -12.953125 7.847656 -12.695312 8.140625 -12.1875 C 8.441406 -11.6875 8.59375 -11.070312 8.59375 -10.34375 L 8.59375 0 L 6.234375 0 L 6.234375 -9.65625 C 6.234375 -10.144531 6.15625 -10.503906 6 -10.734375 C 5.851562 -10.972656 5.59375 -11.09375 5.21875 -11.09375 C 4.738281 -11.09375 4.1875 -10.828125 3.5625 -10.296875 L 3.5625 0 L 1.1875 0 Z M 1.1875 -12.765625 "/></g></g></g><g fill="#000000" fill-opacity="1"><g transform="translate(302.023852, 46.874997)"><g><path d="M 4.15625 0.171875 C 3.125 0.171875 2.285156 -0.148438 1.640625 -0.796875 C 1.003906 -1.441406 0.640625 -2.3125 0.546875 -3.40625 L 2.515625 -4 C 2.640625 -3.175781 2.84375 -2.5625 3.125 -2.15625 C 3.414062 -1.757812 3.828125 -1.5625 4.359375 -1.5625 C 4.765625 -1.5625 5.082031 -1.679688 5.3125 -1.921875 C 5.539062 -2.171875 5.65625 -2.503906 5.65625 -2.921875 C 5.65625 -3.285156 5.570312 -3.613281 5.40625 -3.90625 C 5.25 -4.207031 4.988281 -4.507812 4.625 -4.8125 L 2.4375 -6.6875 C 1.925781 -7.113281 1.535156 -7.566406 1.265625 -8.046875 C 0.992188 -8.523438 0.859375 -9.113281 0.859375 -9.8125 C 0.859375 -10.800781 1.148438 -11.570312 1.734375 -12.125 C 2.328125 -12.675781 3.132812 -12.953125 4.15625 -12.953125 C 5.125 -12.953125 5.882812 -12.632812 6.4375 -12 C 6.988281 -11.375 7.3125 -10.570312 7.40625 -9.59375 L 5.8125 -8.984375 C 5.707031 -9.710938 5.535156 -10.265625 5.296875 -10.640625 C 5.066406 -11.015625 4.710938 -11.203125 4.234375 -11.203125 C 3.859375 -11.203125 3.554688 -11.078125 3.328125 -10.828125 C 3.097656 -10.578125 2.984375 -10.265625 2.984375 -9.890625 C 2.984375 -9.421875 3.195312 -8.992188 3.625 -8.609375 L 5.875 -6.546875 C 6.445312 -6.015625 6.890625 -5.488281 7.203125 -4.96875 C 7.523438 -4.457031 7.6875 -3.832031 7.6875 -3.09375 C 7.6875 -2.03125 7.367188 -1.21875 6.734375 -0.65625 C 6.097656 -0.101562 5.238281 0.171875 4.15625 0.171875 Z M 4.15625 0.171875 "/></g></g></g><g fill="#000000" fill-opacity="1"><g transform="translate(310.281084, 46.874997)"><g><path d="M 3.359375 -16.046875 L 0.328125 -16.046875 L 0.328125 -17.890625 L 8.796875 -17.890625 L 8.796875 -16.046875 L 5.859375 -16.046875 L 5.859375 0 L 3.359375 0 Z M 3.359375 -16.046875 "/></g></g></g><g fill="#000000" fill-opacity="1"><g transform="translate(319.399358, 46.874997)"><g><path d="M 3.484375 0.171875 C 3.003906 0.171875 2.566406 0.0351562 2.171875 -0.234375 C 1.785156 -0.515625 1.476562 -0.882812 1.25 -1.34375 C 1.03125 -1.800781 0.921875 -2.28125 0.921875 -2.78125 C 0.921875 -3.78125 1.132812 -4.59375 1.5625 -5.21875 C 1.988281 -5.851562 2.535156 -6.351562 3.203125 -6.71875 C 3.867188 -7.082031 4.789062 -7.5 5.96875 -7.96875 L 5.96875 -8.875 C 5.96875 -9.71875 5.878906 -10.3125 5.703125 -10.65625 C 5.535156 -11 5.195312 -11.171875 4.6875 -11.171875 C 3.789062 -11.171875 3.34375 -10.570312 3.34375 -9.375 L 3.34375 -8.734375 L 1 -8.8125 C 1.019531 -10.226562 1.335938 -11.269531 1.953125 -11.9375 C 2.578125 -12.613281 3.539062 -12.953125 4.84375 -12.953125 C 6.0625 -12.953125 6.945312 -12.613281 7.5 -11.9375 C 8.050781 -11.269531 8.328125 -10.257812 8.328125 -8.90625 L 8.328125 -3.078125 C 8.328125 -2.117188 8.398438 -1.09375 8.546875 0 L 6.390625 0 C 6.222656 -0.84375 6.117188 -1.46875 6.078125 -1.875 C 5.898438 -1.300781 5.59375 -0.816406 5.15625 -0.421875 C 4.71875 -0.0234375 4.160156 0.171875 3.484375 0.171875 Z M 4.421875 -1.859375 C 4.722656 -1.859375 5.019531 -1.976562 5.3125 -2.21875 C 5.613281 -2.457031 5.832031 -2.691406 5.96875 -2.921875 L 5.96875 -6.546875 C 5.332031 -6.191406 4.84375 -5.882812 4.5 -5.625 C 4.15625 -5.363281 3.867188 -5.0625 3.640625 -4.71875 C 3.410156 -4.382812 3.296875 -3.984375 3.296875 -3.515625 C 3.296875 -2.984375 3.390625 -2.570312 3.578125 -2.28125 C 3.765625 -2 4.046875 -1.859375 4.421875 -1.859375 Z M 4.421875 -1.859375 "/></g></g></g><g fill="#000000" fill-opacity="1"><g transform="translate(328.80465, 46.874997)"><g><path d="M 5.765625 0.171875 C 5.003906 0.171875 4.28125 -0.191406 3.59375 -0.921875 L 3.59375 0 L 1.234375 0 L 1.234375 -17.890625 L 3.59375 -17.890625 L 3.59375 -11.75 C 4.289062 -12.550781 5.097656 -12.953125 6.015625 -12.953125 C 7.171875 -12.953125 7.941406 -12.453125 8.328125 -11.453125 C 8.722656 -10.460938 8.921875 -9.363281 8.921875 -8.15625 L 8.921875 -5.0625 C 8.921875 -1.570312 7.867188 0.171875 5.765625 0.171875 Z M 5.28125 -1.671875 C 5.820312 -1.671875 6.171875 -1.945312 6.328125 -2.5 C 6.484375 -3.0625 6.5625 -3.914062 6.5625 -5.0625 L 6.5625 -8.15625 C 6.5625 -9.09375 6.472656 -9.816406 6.296875 -10.328125 C 6.117188 -10.835938 5.75 -11.09375 5.1875 -11.09375 C 4.675781 -11.09375 4.144531 -10.878906 3.59375 -10.453125 L 3.59375 -2.25 C 4.082031 -1.863281 4.644531 -1.671875 5.28125 -1.671875 Z M 5.28125 -1.671875 "/></g></g></g><g fill="#000000" fill-opacity="1"><g transform="translate(338.673587, 46.874997)"><g><path d="M 1.40625 -17.890625 L 3.78125 -17.890625 L 3.78125 0 L 1.40625 0 Z M 1.40625 -17.890625 "/></g></g></g><g fill="#000000" fill-opacity="1"><g transform="translate(343.729484, 46.874997)"><g><path d="M 4.734375 0.171875 C 3.742188 0.171875 2.972656 -0.015625 2.421875 -0.390625 C 1.878906 -0.765625 1.5 -1.316406 1.28125 -2.046875 C 1.0625 -2.785156 0.953125 -3.742188 0.953125 -4.921875 L 0.953125 -7.84375 C 0.953125 -9.613281 1.226562 -10.90625 1.78125 -11.71875 C 2.332031 -12.539062 3.316406 -12.953125 4.734375 -12.953125 C 5.765625 -12.953125 6.539062 -12.738281 7.0625 -12.3125 C 7.582031 -11.882812 7.925781 -11.28125 8.09375 -10.5 C 8.257812 -9.726562 8.34375 -8.6875 8.34375 -7.375 L 8.34375 -6.34375 L 3.3125 -6.34375 L 3.3125 -3.78125 C 3.3125 -3 3.425781 -2.429688 3.65625 -2.078125 C 3.882812 -1.734375 4.25 -1.5625 4.75 -1.5625 C 5.25 -1.5625 5.585938 -1.734375 5.765625 -2.078125 C 5.941406 -2.429688 6.03125 -2.960938 6.03125 -3.671875 L 6.03125 -4.4375 L 8.328125 -4.4375 L 8.328125 -3.953125 C 8.328125 -2.609375 8.039062 -1.582031 7.46875 -0.875 C 6.894531 -0.175781 5.984375 0.171875 4.734375 0.171875 Z M 6.03125 -7.625 L 6.03125 -8.765625 C 6.03125 -9.640625 5.945312 -10.265625 5.78125 -10.640625 C 5.613281 -11.015625 5.253906 -11.203125 4.703125 -11.203125 C 4.316406 -11.203125 4.023438 -11.113281 3.828125 -10.9375 C 3.628906 -10.757812 3.492188 -10.46875 3.421875 -10.0625 C 3.347656 -9.65625 3.3125 -9.070312 3.3125 -8.3125 L 3.3125 -7.625 Z M 6.03125 -7.625 "/></g></g></g></svg>