<svg xmlns="http://www.w3.org/2000/svg" xmlns:xlink="http://www.w3.org/1999/xlink" width="200" zoomAndPan="magnify" viewBox="0 0 150 30.000001" height="40" preserveAspectRatio="xMidYMid meet" version="1.0"><defs><g/><clipPath id="160c683d6b"><path d="M 2.417969 1 L 16 1 L 16 22 L 2.417969 22 Z M 2.417969 1 " clip-rule="nonzero"/></clipPath></defs><g clip-path="url(#160c683d6b)"><g fill="#ffffff" fill-opacity="1"><g transform="translate(2.419352, 21.769971)"><g><path d="M 4.375 -20.40625 L 9.515625 -20.40625 L 13.328125 0 L 9.171875 0 L 8.484375 -4.3125 L 5.484375 -4.3125 L 4.78125 0 L 0.53125 0 Z M 8.0625 -7 L 6.984375 -14.96875 L 5.890625 -7 Z M 8.0625 -7 "/></g></g></g></g><g fill="#ffffff" fill-opacity="1"><g transform="translate(16.294405, 21.769971)"><g><path d="M 3.859375 0.25 C 2.984375 0.25 2.3125 -0.0625 1.84375 -0.6875 C 1.375 -1.320312 1.140625 -2.140625 1.140625 -3.140625 L 1.140625 -14.5625 L 5.234375 -14.5625 L 5.234375 -3.625 C 5.234375 -3.257812 5.300781 -2.984375 5.4375 -2.796875 C 5.570312 -2.609375 5.789062 -2.515625 6.09375 -2.515625 C 6.363281 -2.515625 6.765625 -2.664062 7.296875 -2.96875 L 7.296875 -14.5625 L 11.390625 -14.5625 L 11.390625 0 L 7.296875 0 L 7.296875 -1.328125 C 6.160156 -0.273438 5.015625 0.25 3.859375 0.25 Z M 3.859375 0.25 "/></g></g></g><g fill="#ffffff" fill-opacity="1"><g transform="translate(28.985941, 21.769971)"><g><path d="M 6.015625 0.25 C 4.441406 0.25 3.207031 -0.175781 2.3125 -1.03125 C 1.425781 -1.882812 0.984375 -3.078125 0.984375 -4.609375 L 0.984375 -9.953125 C 0.984375 -11.492188 1.421875 -12.6875 2.296875 -13.53125 C 3.179688 -14.382812 4.421875 -14.8125 6.015625 -14.8125 C 7.597656 -14.8125 8.8125 -14.441406 9.65625 -13.703125 C 10.507812 -12.960938 10.9375 -11.867188 10.9375 -10.421875 L 10.9375 -8.890625 L 6.984375 -8.890625 L 6.984375 -10.546875 C 6.984375 -11.109375 6.898438 -11.492188 6.734375 -11.703125 C 6.578125 -11.910156 6.335938 -12.015625 6.015625 -12.015625 C 5.703125 -12.015625 5.472656 -11.882812 5.328125 -11.625 C 5.179688 -11.363281 5.109375 -10.921875 5.109375 -10.296875 L 5.109375 -4.25 C 5.109375 -3.632812 5.179688 -3.195312 5.328125 -2.9375 C 5.484375 -2.6875 5.722656 -2.5625 6.046875 -2.5625 C 6.367188 -2.5625 6.601562 -2.671875 6.75 -2.890625 C 6.90625 -3.109375 6.984375 -3.476562 6.984375 -4 L 6.984375 -5.9375 L 10.9375 -5.9375 L 10.9375 -4.1875 C 10.9375 -2.738281 10.503906 -1.632812 9.640625 -0.875 C 8.785156 -0.125 7.578125 0.25 6.015625 0.25 Z M 6.015625 0.25 "/></g></g></g><g fill="#ffffff" fill-opacity="1"><g transform="translate(40.770931, 21.769971)"><g><path d="M 5.796875 0.15625 C 4.722656 0.15625 3.890625 0 3.296875 -0.3125 C 2.710938 -0.625 2.300781 -1.070312 2.0625 -1.65625 C 1.832031 -2.25 1.71875 -3.015625 1.71875 -3.953125 L 1.71875 -11.859375 L 0.296875 -11.859375 L 0.296875 -14.5625 L 1.71875 -14.5625 L 1.71875 -18.984375 L 5.875 -18.984375 L 5.875 -14.5625 L 7.9375 -14.5625 L 7.9375 -11.859375 L 5.875 -11.859375 L 5.875 -4.359375 C 5.875 -3.953125 5.984375 -3.648438 6.203125 -3.453125 C 6.429688 -3.265625 6.75 -3.171875 7.15625 -3.171875 C 7.488281 -3.171875 7.859375 -3.207031 8.265625 -3.28125 L 8.265625 -0.046875 C 7.453125 0.0859375 6.628906 0.15625 5.796875 0.15625 Z M 5.796875 0.15625 "/></g></g></g><g fill="#ffffff" fill-opacity="1"><g transform="translate(49.685217, 21.769971)"><g><path d="M 1.28125 -19.875 L 5.421875 -19.875 L 5.421875 -17.03125 L 1.28125 -17.03125 Z M 1.3125 -14.5625 L 5.421875 -14.5625 L 5.421875 0 L 1.3125 0 Z M 1.3125 -14.5625 "/></g></g></g><g fill="#ffffff" fill-opacity="1"><g transform="translate(56.35834, 21.769971)"><g><path d="M 6.0625 0.25 C 4.46875 0.25 3.222656 -0.148438 2.328125 -0.953125 C 1.429688 -1.765625 0.984375 -2.953125 0.984375 -4.515625 L 0.984375 -10.046875 C 0.984375 -11.609375 1.429688 -12.789062 2.328125 -13.59375 C 3.222656 -14.40625 4.46875 -14.8125 6.0625 -14.8125 C 7.664062 -14.8125 8.921875 -14.398438 9.828125 -13.578125 C 10.734375 -12.765625 11.1875 -11.585938 11.1875 -10.046875 L 11.1875 -4.515625 C 11.1875 -2.960938 10.734375 -1.78125 9.828125 -0.96875 C 8.921875 -0.15625 7.664062 0.25 6.0625 0.25 Z M 6.09375 -2.46875 C 6.476562 -2.46875 6.742188 -2.613281 6.890625 -2.90625 C 7.046875 -3.195312 7.125 -3.640625 7.125 -4.234375 L 7.125 -10.328125 C 7.125 -10.910156 7.046875 -11.347656 6.890625 -11.640625 C 6.742188 -11.941406 6.476562 -12.09375 6.09375 -12.09375 C 5.707031 -12.09375 5.429688 -11.941406 5.265625 -11.640625 C 5.109375 -11.335938 5.03125 -10.898438 5.03125 -10.328125 L 5.03125 -4.234375 C 5.03125 -3.640625 5.109375 -3.195312 5.265625 -2.90625 C 5.429688 -2.613281 5.707031 -2.46875 6.09375 -2.46875 Z M 6.09375 -2.46875 "/></g></g></g><g fill="#ffffff" fill-opacity="1"><g transform="translate(68.521036, 21.769971)"><g><path d="M 1.28125 -14.5625 L 5.390625 -14.5625 L 5.390625 -13.09375 C 6.535156 -14.238281 7.703125 -14.8125 8.890625 -14.8125 C 9.765625 -14.8125 10.429688 -14.492188 10.890625 -13.859375 C 11.359375 -13.234375 11.59375 -12.414062 11.59375 -11.40625 L 11.59375 0 L 7.5 0 L 7.5 -10.828125 C 7.5 -11.203125 7.4375 -11.472656 7.3125 -11.640625 C 7.1875 -11.816406 6.972656 -11.90625 6.671875 -11.90625 C 6.335938 -11.90625 5.910156 -11.734375 5.390625 -11.390625 L 5.390625 0 L 1.28125 0 Z M 1.28125 -14.5625 "/></g></g></g><g fill="#ffffff" fill-opacity="1"><g transform="translate(81.288107, 21.769971)"><g><path d="M 5.765625 0.25 C 4.472656 0.25 3.398438 -0.0351562 2.546875 -0.609375 C 1.703125 -1.191406 1.019531 -2.125 0.5 -3.40625 L 3.296875 -4.640625 C 3.566406 -3.960938 3.878906 -3.4375 4.234375 -3.0625 C 4.597656 -2.695312 5 -2.515625 5.4375 -2.515625 C 6.070312 -2.515625 6.390625 -2.769531 6.390625 -3.28125 C 6.390625 -3.644531 6.265625 -3.972656 6.015625 -4.265625 C 5.765625 -4.554688 5.21875 -5.050781 4.375 -5.75 L 3.328125 -6.625 C 2.453125 -7.363281 1.816406 -8.035156 1.421875 -8.640625 C 1.023438 -9.242188 0.828125 -9.96875 0.828125 -10.8125 C 0.828125 -11.582031 1.03125 -12.269531 1.4375 -12.875 C 1.851562 -13.476562 2.40625 -13.953125 3.09375 -14.296875 C 3.78125 -14.640625 4.519531 -14.8125 5.3125 -14.8125 C 6.507812 -14.8125 7.503906 -14.488281 8.296875 -13.84375 C 9.097656 -13.195312 9.664062 -12.269531 10 -11.0625 L 7.359375 -9.84375 C 7.191406 -10.382812 6.929688 -10.867188 6.578125 -11.296875 C 6.222656 -11.722656 5.835938 -11.9375 5.421875 -11.9375 C 5.148438 -11.9375 4.929688 -11.859375 4.765625 -11.703125 C 4.609375 -11.554688 4.53125 -11.359375 4.53125 -11.109375 C 4.53125 -10.804688 4.691406 -10.476562 5.015625 -10.125 C 5.347656 -9.769531 5.867188 -9.304688 6.578125 -8.734375 L 7.609375 -7.828125 C 8.441406 -7.128906 9.082031 -6.472656 9.53125 -5.859375 C 9.988281 -5.242188 10.21875 -4.523438 10.21875 -3.703125 C 10.21875 -2.878906 10.007812 -2.171875 9.59375 -1.578125 C 9.1875 -0.984375 8.644531 -0.53125 7.96875 -0.21875 C 7.289062 0.09375 6.554688 0.25 5.765625 0.25 Z M 5.765625 0.25 "/></g></g></g><g fill="#ffffff" fill-opacity="1"><g transform="translate(91.965115, 21.769971)"><g><path d="M 3.34375 -17.046875 L 0.28125 -17.046875 L 0.28125 -20.40625 L 10.9375 -20.40625 L 10.9375 -17.046875 L 7.890625 -17.046875 L 7.890625 0 L 3.34375 0 Z M 3.34375 -17.046875 "/></g></g></g><g fill="#ffffff" fill-opacity="1"><g transform="translate(103.170932, 21.769971)"><g><path d="M 4.28125 0.25 C 3.570312 0.25 2.960938 0.078125 2.453125 -0.265625 C 1.941406 -0.609375 1.554688 -1.050781 1.296875 -1.59375 C 1.035156 -2.144531 0.90625 -2.710938 0.90625 -3.296875 C 0.90625 -4.421875 1.191406 -5.34375 1.765625 -6.0625 C 2.335938 -6.789062 3.019531 -7.351562 3.8125 -7.75 C 4.613281 -8.15625 5.644531 -8.578125 6.90625 -9.015625 L 6.90625 -10.484375 C 6.90625 -10.898438 6.84375 -11.21875 6.71875 -11.4375 C 6.59375 -11.65625 6.367188 -11.765625 6.046875 -11.765625 C 5.722656 -11.765625 5.492188 -11.660156 5.359375 -11.453125 C 5.222656 -11.253906 5.148438 -10.972656 5.140625 -10.609375 L 5.03125 -9.546875 L 1.203125 -9.703125 C 1.273438 -11.441406 1.738281 -12.726562 2.59375 -13.5625 C 3.445312 -14.394531 4.722656 -14.8125 6.421875 -14.8125 C 7.847656 -14.8125 8.9375 -14.410156 9.6875 -13.609375 C 10.445312 -12.816406 10.828125 -11.753906 10.828125 -10.421875 L 10.828125 -3.625 C 10.828125 -2.144531 10.910156 -0.9375 11.078125 0 L 7.40625 0 C 7.25 -1.125 7.140625 -1.8125 7.078125 -2.0625 C 6.878906 -1.394531 6.539062 -0.84375 6.0625 -0.40625 C 5.59375 0.03125 5 0.25 4.28125 0.25 Z M 5.75 -2.515625 C 6.164062 -2.515625 6.550781 -2.757812 6.90625 -3.25 L 6.90625 -7.234375 C 6.144531 -6.796875 5.570312 -6.335938 5.1875 -5.859375 C 4.800781 -5.378906 4.609375 -4.796875 4.609375 -4.109375 C 4.609375 -3.617188 4.707031 -3.226562 4.90625 -2.9375 C 5.113281 -2.65625 5.394531 -2.515625 5.75 -2.515625 Z M 5.75 -2.515625 "/></g></g></g><g fill="#ffffff" fill-opacity="1"><g transform="translate(115.157359, 21.769971)"><g><path d="M 8.515625 0.25 C 7.472656 0.25 6.429688 -0.203125 5.390625 -1.109375 L 5.390625 0 L 1.28125 0 L 1.28125 -20.40625 L 5.390625 -20.40625 L 5.390625 -13.5 C 5.878906 -13.9375 6.398438 -14.265625 6.953125 -14.484375 C 7.503906 -14.703125 8.039062 -14.8125 8.5625 -14.8125 C 9.625 -14.8125 10.410156 -14.414062 10.921875 -13.625 C 11.429688 -12.832031 11.6875 -11.800781 11.6875 -10.53125 L 11.6875 -4.25 C 11.6875 -2.863281 11.410156 -1.765625 10.859375 -0.953125 C 10.304688 -0.148438 9.523438 0.25 8.515625 0.25 Z M 6.53125 -2.390625 C 6.894531 -2.390625 7.160156 -2.539062 7.328125 -2.84375 C 7.492188 -3.144531 7.578125 -3.539062 7.578125 -4.03125 L 7.578125 -10.828125 C 7.578125 -11.285156 7.5 -11.648438 7.34375 -11.921875 C 7.1875 -12.203125 6.929688 -12.34375 6.578125 -12.34375 C 6.191406 -12.34375 5.796875 -12.179688 5.390625 -11.859375 L 5.390625 -2.796875 C 5.753906 -2.523438 6.132812 -2.390625 6.53125 -2.390625 Z M 6.53125 -2.390625 "/></g></g></g><g fill="#ffffff" fill-opacity="1"><g transform="translate(127.89923, 21.769971)"><g><path d="M 1.453125 -20.40625 L 5.546875 -20.40625 L 5.546875 0 L 1.453125 0 Z M 1.453125 -20.40625 "/></g></g></g><g fill="#ffffff" fill-opacity="1"><g transform="translate(134.798989, 21.769971)"><g><path d="M 6.046875 0.25 C 4.453125 0.25 3.207031 -0.171875 2.3125 -1.015625 C 1.425781 -1.867188 0.984375 -3.066406 0.984375 -4.609375 L 0.984375 -9.953125 C 0.984375 -11.492188 1.425781 -12.6875 2.3125 -13.53125 C 3.207031 -14.382812 4.453125 -14.8125 6.046875 -14.8125 C 7.660156 -14.8125 8.867188 -14.398438 9.671875 -13.578125 C 10.472656 -12.753906 10.875 -11.546875 10.875 -9.953125 L 10.875 -7.03125 L 5.03125 -7.03125 L 5.03125 -4.234375 C 5.03125 -3.191406 5.367188 -2.671875 6.046875 -2.671875 C 6.753906 -2.671875 7.109375 -3.140625 7.109375 -4.078125 L 7.109375 -5.609375 L 10.875 -5.609375 L 10.875 -4.203125 C 10.875 -2.742188 10.453125 -1.632812 9.609375 -0.875 C 8.765625 -0.125 7.578125 0.25 6.046875 0.25 Z M 7.109375 -8.9375 L 7.109375 -10.40625 C 7.109375 -10.9375 7.007812 -11.316406 6.8125 -11.546875 C 6.625 -11.773438 6.359375 -11.890625 6.015625 -11.890625 C 5.703125 -11.890625 5.457031 -11.765625 5.28125 -11.515625 C 5.113281 -11.265625 5.03125 -10.816406 5.03125 -10.171875 L 5.03125 -8.9375 Z M 7.109375 -8.9375 "/></g></g></g></svg>